<?xml version="1.0" encoding="UTF-8"?>
<!-- 収益物件用マイソクテンプレート（A4 + 塗り足し3mm） -->
<svg xmlns="http://www.w3.org/2000/svg"
     width="2977" height="4181"
     viewBox="0 0 2977 4181">

  <style>
    @import url('https://fonts.googleapis.com/css2?family=Noto+Sans+JP:wght@400;700&amp;display=swap');
    .title { font-family: "Noto Sans JP", sans-serif; font-size: 48px; font-weight: bold; fill: #1a1a1a; }
    .section-title { font-family: "Noto Sans JP", sans-serif; font-size: 28px; font-weight: bold; fill: #333; }
    .label { font-family: "Noto Sans JP", sans-serif; font-size: 20px; fill: #666; }
    .value { font-family: "Noto Sans JP", sans-serif; font-size: 24px; fill: #1a1a1a; }
    .price { font-family: "Noto Sans JP", sans-serif; font-size: 64px; font-weight: bold; fill: #c41e3a; }
    .yield { font-family: "Noto Sans JP", sans-serif; font-size: 48px; font-weight: bold; fill: #ea580c; }
    .address { font-family: "Noto Sans JP", sans-serif; font-size: 28px; fill: #1a1a1a; }
    .small { font-family: "Noto Sans JP", sans-serif; font-size: 16px; fill: #888; }
    .highlight-box { fill: #fff7ed; }
  </style>

  <!-- 背景 -->
  <rect width="100%" height="100%" fill="#ffffff"/>

  <!-- ヘッダー：物件種別 -->
  <rect x="80" y="80" width="200" height="60" rx="4" fill="#ea580c"/>
  <text x="180" y="120" class="label" fill="#fff" text-anchor="middle">収益物件</text>

  <!-- 物件名 -->
  <text x="80" y="220" class="title">{{property_name}}</text>

  <!-- 価格・利回りセクション -->
  <rect x="80" y="260" width="1400" height="160" fill="#fff7ed" rx="8"/>
  <text x="120" y="320" class="label">販売価格</text>
  <text x="120" y="390" class="price">{{price}}</text>

  <rect x="1520" y="260" width="1377" height="160" fill="#fef3c7" rx="8"/>
  <text x="1560" y="320" class="label">表面利回り</text>
  <text x="1560" y="390" class="yield">{{yield_rate}}</text>

  <!-- 収益情報セクション -->
  <rect x="80" y="460" width="2817" height="2" fill="#e5e7eb"/>
  <text x="80" y="520" class="section-title">収益情報</text>

  <g transform="translate(80, 560)">
    <rect x="0" y="0" width="680" height="50" fill="#f3f4f6"/>
    <rect x="680" y="0" width="680" height="50" fill="#f3f4f6"/>
    <rect x="1360" y="0" width="680" height="50" fill="#f3f4f6"/>

    <text x="20" y="35" class="label">月額賃料</text>
    <text x="700" y="35" class="label">年間収入</text>
    <text x="1380" y="35" class="label">満室想定</text>

    <rect x="0" y="50" width="680" height="60" fill="#fff" stroke="#e5e7eb"/>
    <rect x="680" y="50" width="680" height="60" fill="#fff" stroke="#e5e7eb"/>
    <rect x="1360" y="50" width="680" height="60" fill="#fff" stroke="#e5e7eb"/>

    <text x="20" y="95" class="value">{{monthly_rent}}</text>
    <text x="700" y="95" class="value">{{annual_income}}</text>
    <text x="1380" y="95" class="value">{{occupancy_status}}</text>
  </g>

  <!-- 所在地セクション -->
  <rect x="80" y="700" width="2817" height="2" fill="#e5e7eb"/>
  <text x="80" y="760" class="section-title">所在地・交通</text>
  <text x="80" y="810" class="address">{{address}}</text>
  <text x="80" y="860" class="label">交通</text>
  <text x="200" y="860" class="value">{{access}}</text>

  <!-- 建物情報 -->
  <rect x="80" y="920" width="2817" height="2" fill="#e5e7eb"/>
  <text x="80" y="980" class="section-title">建物情報</text>

  <g transform="translate(80, 1020)">
    <rect x="0" y="0" width="520" height="50" fill="#f3f4f6"/>
    <rect x="520" y="0" width="520" height="50" fill="#f3f4f6"/>
    <rect x="1040" y="0" width="520" height="50" fill="#f3f4f6"/>
    <rect x="1560" y="0" width="520" height="50" fill="#f3f4f6"/>

    <text x="20" y="35" class="label">延床面積</text>
    <text x="540" y="35" class="label">構造</text>
    <text x="1060" y="35" class="label">築年月</text>
    <text x="1580" y="35" class="label">総戸数</text>

    <rect x="0" y="50" width="520" height="60" fill="#fff" stroke="#e5e7eb"/>
    <rect x="520" y="50" width="520" height="60" fill="#fff" stroke="#e5e7eb"/>
    <rect x="1040" y="50" width="520" height="60" fill="#fff" stroke="#e5e7eb"/>
    <rect x="1560" y="50" width="520" height="60" fill="#fff" stroke="#e5e7eb"/>

    <text x="20" y="95" class="value">{{building_area}}</text>
    <text x="540" y="95" class="value">{{building_structure}}</text>
    <text x="1060" y="95" class="value">{{construction_date}}</text>
    <text x="1580" y="95" class="value">{{total_units}}戸</text>
  </g>

  <!-- 土地情報 -->
  <rect x="80" y="1160" width="2817" height="2" fill="#e5e7eb"/>
  <text x="80" y="1220" class="section-title">土地情報</text>

  <g transform="translate(80, 1260)">
    <rect x="0" y="0" width="680" height="50" fill="#f3f4f6"/>
    <rect x="680" y="0" width="680" height="50" fill="#f3f4f6"/>
    <rect x="1360" y="0" width="680" height="50" fill="#f3f4f6"/>

    <text x="20" y="35" class="label">土地面積</text>
    <text x="700" y="35" class="label">用途地域</text>
    <text x="1380" y="35" class="label">建ぺい率/容積率</text>

    <rect x="0" y="50" width="680" height="60" fill="#fff" stroke="#e5e7eb"/>
    <rect x="680" y="50" width="680" height="60" fill="#fff" stroke="#e5e7eb"/>
    <rect x="1360" y="50" width="680" height="60" fill="#fff" stroke="#e5e7eb"/>

    <text x="20" y="95" class="value">{{land_area}}</text>
    <text x="700" y="95" class="value">{{use_district}}</text>
    <text x="1380" y="95" class="value">{{building_coverage}} / {{floor_area_ratio}}</text>
  </g>

  <!-- 写真エリア -->
  <!-- メイン画像（外観） -->
  <rect x="80" y="1420" width="1350" height="800" fill="#f9fafb" stroke="#e5e7eb" rx="8"/>
  <image x="80" y="1420" width="1350" height="800" href="{{main_image}}" preserveAspectRatio="xMidYMid slice" clip-path="inset(0 round 8px)"/>

  <!-- サブ画像1（室内1） -->
  <rect x="1500" y="1420" width="650" height="380" fill="#f9fafb" stroke="#e5e7eb" rx="8"/>
  <image x="1500" y="1420" width="650" height="380" href="{{sub_image_1}}" preserveAspectRatio="xMidYMid slice" clip-path="inset(0 round 8px)"/>

  <!-- サブ画像2（室内2） -->
  <rect x="2200" y="1420" width="650" height="380" fill="#f9fafb" stroke="#e5e7eb" rx="8"/>
  <image x="2200" y="1420" width="650" height="380" href="{{sub_image_2}}" preserveAspectRatio="xMidYMid slice" clip-path="inset(0 round 8px)"/>

  <!-- サブ画像3（間取り図） -->
  <rect x="1500" y="1840" width="650" height="380" fill="#f9fafb" stroke="#e5e7eb" rx="8"/>
  <image x="1500" y="1840" width="650" height="380" href="{{sub_image_3}}" preserveAspectRatio="xMidYMid slice" clip-path="inset(0 round 8px)"/>

  <!-- サブ画像4（周辺地図） -->
  <rect x="2200" y="1840" width="650" height="380" fill="#f9fafb" stroke="#e5e7eb" rx="8"/>
  <image x="2200" y="1840" width="650" height="380" href="{{sub_image_4}}" preserveAspectRatio="xMidYMid slice" clip-path="inset(0 round 8px)"/>

  <!-- レントロール -->
  <rect x="80" y="2280" width="2817" height="2" fill="#e5e7eb"/>
  <text x="80" y="2340" class="section-title">レントロール（賃貸借概要）</text>
  <rect x="80" y="2370" width="2817" height="200" fill="#fff" stroke="#e5e7eb" rx="8"/>
  <text x="100" y="2420" class="small">{{rent_roll}}</text>

  <!-- 取引条件 -->
  <rect x="80" y="2620" width="2817" height="2" fill="#e5e7eb"/>
  <text x="80" y="2680" class="section-title">取引条件</text>

  <g transform="translate(80, 2720)">
    <rect x="0" y="0" width="680" height="50" fill="#f3f4f6"/>
    <rect x="680" y="0" width="680" height="50" fill="#f3f4f6"/>

    <text x="20" y="35" class="label">取引態様</text>
    <text x="700" y="35" class="label">引渡時期</text>

    <rect x="0" y="50" width="680" height="60" fill="#fff" stroke="#e5e7eb"/>
    <rect x="680" y="50" width="680" height="60" fill="#fff" stroke="#e5e7eb"/>

    <text x="20" y="95" class="value">{{transaction_type}}</text>
    <text x="700" y="95" class="value">{{delivery_timing}}</text>
  </g>

  <!-- 備考 -->
  <rect x="80" y="2900" width="2817" height="2" fill="#e5e7eb"/>
  <text x="80" y="2960" class="section-title">備考</text>
  <rect x="80" y="2990" width="2817" height="160" fill="#fff" stroke="#e5e7eb" rx="8"/>
  <text x="100" y="3040" class="small">{{remarks}}</text>

  <!-- フッター -->
  <rect x="0" y="3900" width="2977" height="281" fill="#1e3a5f"/>
  <text x="120" y="4000" class="value" fill="#fff">{{company_name}}</text>
  <text x="120" y="4060" class="label" fill="#ccc">TEL: {{company_phone}} | 免許番号: {{license_number}}</text>
  <text x="120" y="4110" class="small" fill="#999">{{company_address}}</text>

</svg>
